<?xml version="1.0" standalone="no"?>
<!DOCTYPE svg PUBLIC "-//W3C//DTD SVG 20010904//EN"
 "http://www.w3.org/TR/2001/REC-SVG-20010904/DTD/svg10.dtd">
<svg version="1.0" xmlns="http://www.w3.org/2000/svg"
 width="1280.000000pt" height="1280.000000pt" viewBox="0 0 1280.000000 1280.000000"
 preserveAspectRatio="xMidYMid meet">
<metadata>
Created by potrace 1.16, written by Peter Selinger 2001-2019
</metadata>
<g transform="translate(0.000000,1280.000000) scale(0.100000,-0.100000)"
fill="red" stroke="none">
<path fill="red" d="M2485 9031 c-50 -23 -100 -72 -128 -125 -32 -61 -29 -162 8 -244 36
-81 123 -163 232 -220 92 -48 110 -50 147 -21 23 18 27 28 24 63 -3 41 -3 41
-93 88 -145 77 -212 166 -189 255 13 50 52 77 112 77 72 0 113 -28 133 -89 18
-57 43 -73 91 -59 104 30 54 192 -80 261 -56 29 -73 33 -140 33 -54 0 -89 -6
-117 -19z"/>
<path fill="green" d="M5450 9037 c-55 -18 -135 -103 -153 -162 -19 -64 -7 -159 29 -232 33
-69 123 -150 225 -202 92 -47 106 -49 143 -20 23 18 27 28 24 63 -3 41 -4 41
-92 88 -105 56 -159 105 -182 165 -19 49 -14 106 12 134 26 29 86 42 133 29
58 -15 90 -45 97 -92 8 -49 37 -66 86 -52 104 30 54 192 -80 261 -56 29 -73
33 -135 32 -40 -1 -88 -6 -107 -12z"/>
<path fill="blue" d="M10577 9036 c-88 -32 -146 -88 -189 -182 -32 -70 -32 -199 1 -266 47
-97 156 -186 230 -189 15 0 -3 -8 -39 -18 -36 -9 -84 -27 -106 -39 -63 -32
-134 -109 -168 -182 -29 -61 -31 -72 -31 -180 0 -105 2 -120 28 -174 36 -78
85 -136 147 -176 27 -18 50 -34 50 -36 0 -2 -17 -20 -38 -38 -21 -19 -51 -59
-68 -88 -27 -49 -29 -61 -29 -158 0 -98 2 -109 30 -159 60 -109 154 -164 280
-165 95 -1 166 27 229 90 64 64 91 134 91 234 0 73 -4 93 -28 141 -15 31 -48
75 -72 98 -25 23 -45 45 -45 50 0 5 15 19 33 30 50 31 130 120 156 173 110
230 -32 524 -280 580 l-54 12 44 7 c88 16 182 95 224 188 16 35 21 67 22 131
0 73 -4 93 -28 142 -37 76 -121 153 -189 173 -63 18 -150 19 -201 1z m201
-165 c44 -31 76 -95 75 -152 -1 -98 -75 -171 -173 -171 -183 0 -243 235 -86
334 43 27 139 21 184 -11z m16 -665 c199 -117 173 -405 -45 -481 -41 -15 -119
-21 -119 -9 0 3 9 19 20 34 11 16 31 52 45 82 50 107 27 294 -45 363 -17 16
-30 33 -30 38 0 20 128 0 174 -27z m-275 -82 c56 -40 78 -162 42 -239 -26 -56
-67 -93 -88 -79 -61 38 -80 210 -34 292 27 45 44 51 80 26z m265 -667 c50 -38
70 -81 70 -147 0 -66 -20 -109 -69 -146 -38 -28 -111 -42 -159 -30 -36 9 -96
65 -112 103 -34 81 -1 190 71 231 57 33 148 28 199 -11z"/>
<path fill="#000000" d="M1470 8913 c-13 -17 -20 -38 -18 -57 3 -26 30 -51 198 -183 107 -84
207 -157 221 -162 34 -12 68 5 89 42 13 24 13 30 0 55 -9 15 -105 96 -214 180
-216 166 -236 175 -276 125z"/>
<path fill="#000000" d="M1575 8376 c-202 -64 -322 -260 -287 -466 28 -161 146 -297 288 -331
83 -20 79 -17 60 -37 -14 -16 -16 -52 -16 -275 0 -311 -13 -287 162 -287 105
0 120 2 138 20 23 23 27 77 6 105 -11 16 -30 20 -90 23 l-76 4 0 199 c0 192
-1 198 -22 213 l-22 16 22 23 c48 51 48 195 2 288 -55 109 -138 171 -247 185
-58 7 -62 15 -34 57 43 65 127 116 206 124 102 11 198 -42 245 -133 l25 -49 5
-403 5 -404 25 -20 c29 -24 87 -19 108 9 10 14 12 103 10 428 -3 403 -3 411
-26 468 -47 114 -135 199 -249 236 -72 24 -175 27 -238 7z m-74 -476 c48 -13
85 -55 108 -121 23 -65 15 -79 -31 -51 -51 32 -148 146 -148 174 0 11 28 10
71 -2z"/>
<path fill="green" d="M2507 8380 c-104 -26 -217 -122 -262 -221 -73 -164 -43 -339 80 -468
118 -123 286 -161 451 -100 93 35 194 142 194 206 0 69 -80 99 -123 47 -74
-88 -91 -103 -134 -118 -55 -19 -121 -20 -175 -4 -53 16 -131 87 -159 144 -27
58 -30 160 -5 219 68 160 283 204 418 85 35 -30 54 -40 81 -40 45 0 81 40 72
80 -9 40 -106 125 -172 150 -65 25 -204 35 -266 20z"/>
<path fill="blue" d="M3175 8373 c-46 -24 -66 -45 -86 -88 -24 -52 -24 -99 1 -151 36 -74
122 -115 198 -95 135 37 178 208 76 303 -53 49 -131 62 -189 31z"/>
<path d="M3691 8360 c-56 -41 -127 -140 -146 -203 -35 -117 -28 -249 19 -352
31 -69 122 -165 188 -198 270 -136 589 71 588 383 0 109 -50 230 -125 305 -43
44 -111 85 -139 85 -25 0 -80 -55 -112 -112 -27 -49 -29 -61 -29 -153 0 -83 4
-109 24 -152 21 -47 107 -143 128 -143 4 0 14 -4 22 -9 43 -27 -76 -101 -164
-101 -86 0 -125 17 -187 80 -45 46 -60 70 -74 116 -34 117 2 246 93 331 56 53
60 84 14 125 -39 35 -48 35 -100 -2z m443 -193 c36 -46 56 -110 56 -173 0 -65
-16 -70 -65 -21 -36 36 -56 107 -48 167 10 72 19 77 57 27z"/>
<path d="M4728 8371 c-76 -25 -118 -52 -174 -114 -74 -82 -107 -163 -112 -272
-6 -144 41 -258 151 -363 62 -58 87 -68 124 -50 54 26 56 97 4 133 -75 52
-131 164 -131 263 0 155 138 284 285 269 133 -14 223 -116 233 -263 7 -111
-16 -174 -88 -245 -33 -32 -62 -68 -65 -81 -7 -27 24 -73 55 -83 44 -14 157
78 198 160 31 64 41 104 52 205 13 129 34 184 87 236 130 126 349 82 421 -85
21 -50 21 -146 -1 -203 -41 -105 -163 -177 -279 -164 -80 9 -108 -8 -108 -64
0 -74 66 -101 196 -80 183 29 321 164 355 345 31 171 -72 359 -240 439 -60 28
-75 31 -166 31 -91 0 -106 -3 -165 -31 -36 -17 -91 -54 -122 -83 l-57 -52 -16
24 c-25 39 -132 108 -197 128 -75 24 -166 23 -240 0z"/>
<path fill="Purple" d="M6287 8380 c-88 -23 -193 -94 -223 -152 -18 -36 -10 -84 16 -98 41
-22 78 -12 134 39 39 36 67 52 106 61 105 25 205 -3 272 -78 47 -52 62 -99 56
-181 -6 -77 -32 -134 -85 -186 -50 -49 -85 -66 -149 -72 -79 -8 -138 12 -201
69 -71 65 -126 64 -152 -1 -16 -37 1 -72 60 -125 103 -94 286 -120 439 -63 39
14 72 37 111 78 l57 57 33 -34 c19 -20 53 -47 76 -62 24 -15 43 -29 43 -33 0
-3 -24 -30 -54 -60 -67 -70 -91 -133 -90 -239 0 -92 34 -169 102 -231 67 -62
122 -83 217 -83 100 0 162 25 228 92 69 70 92 129 92 232 0 73 -4 93 -28 141
-15 31 -48 75 -72 98 -25 23 -45 43 -45 45 0 2 17 15 38 28 175 118 243 320
172 511 -63 167 -219 265 -408 255 -73 -4 -88 -8 -104 -27 -23 -30 -23 -63 1
-92 16 -20 31 -24 108 -30 102 -7 162 -30 210 -79 44 -45 66 -95 71 -162 17
-223 -229 -368 -405 -238 -49 36 -101 111 -107 154 -2 17 -9 69 -15 116 -13
104 -45 172 -112 241 -72 74 -157 111 -267 115 -48 2 -104 -1 -125 -6z m850
-906 c56 -27 87 -76 91 -149 5 -75 -14 -124 -65 -162 -36 -27 -110 -41 -157
-29 -36 9 -96 65 -112 103 -40 94 7 212 96 246 31 12 113 6 147 -9z"/>
<path d="M8347 8380 c-107 -27 -222 -123 -273 -226 -27 -55 -29 -68 -29 -175
0 -113 1 -116 38 -191 113 -229 372 -292 598 -147 66 42 129 130 129 179 0 31
-7 44 -40 73 -73 67 -114 82 -216 82 -86 -1 -97 -4 -168 -38 -52 -26 -87 -52
-112 -83 l-38 -46 -17 24 c-45 59 -50 188 -10 265 55 108 205 170 322 132 20
-6 61 -39 100 -80 70 -73 95 -83 136 -54 53 37 31 106 -61 193 -76 72 -129 94
-236 98 -47 2 -102 -1 -123 -6z m293 -560 c22 -16 -51 -76 -114 -95 -57 -17
-142 -20 -151 -5 -12 19 23 57 76 84 56 28 159 36 189 16z"/>
<path fill="blue" d="M9064 8326 c-144 -145 -188 -354 -108 -522 35 -74 123 -167 188 -199
157 -77 336 -46 463 81 134 133 162 338 71 518 -35 68 -113 151 -164 172 -32
14 -38 13 -60 -1 -29 -19 -45 -54 -37 -83 2 -11 29 -40 58 -66 95 -82 134
-206 100 -322 -13 -48 -27 -69 -73 -114 -60 -59 -108 -80 -178 -80 -67 0 -114
20 -166 68 -65 60 -90 111 -95 192 -7 98 22 168 101 245 34 33 65 68 69 77 9
24 -11 76 -33 88 -42 23 -70 12 -136 -54z"/>
<path d="M9917 8369 c-83 -44 -115 -152 -68 -236 69 -122 237 -118 301 8 75
147 -86 306 -233 228z"/>
<path d="M11180 8370 c-20 -20 -20 -33 -20 -685 0 -652 0 -665 20 -685 18 -18
33 -20 158 -20 169 0 185 7 180 78 -4 60 -25 72 -135 72 l-83 0 0 614 0 615
-22 15 c-31 22 -74 20 -98 -4z"/>
<path d="M7686 7906 c-92 -34 -128 -105 -106 -214 39 -199 100 -312 197 -364
40 -22 183 -63 183 -53 0 2 -29 26 -64 55 -75 59 -100 95 -119 171 -16 61 -13
79 14 79 26 0 89 58 105 97 19 44 17 108 -3 150 -33 70 -130 107 -207 79z"/>
<path d="M9947 7906 c-52 -19 -83 -50 -103 -102 -20 -52 -11 -109 37 -260 49
-154 123 -224 272 -257 37 -8 67 -13 67 -11 0 2 -31 28 -69 59 -71 57 -94 93
-116 175 -14 53 -10 70 15 70 27 0 90 58 106 97 19 44 17 108 -3 150 -33 70
-130 107 -206 79z"/>
<path d="M11597 7906 c-52 -19 -83 -50 -103 -101 -15 -40 -15 -49 0 -121 53
-257 128 -356 296 -394 30 -6 64 -14 75 -17 11 -3 -9 18 -45 46 -80 64 -103
93 -123 151 -26 79 -26 93 8 109 39 18 83 59 102 95 22 42 14 133 -16 174 -41
59 -125 83 -194 58z"/>
<path d="M3185 7892 c-113 -53 -143 -177 -64 -267 107 -121 302 -50 302 110 0
41 -6 63 -23 88 -52 75 -141 104 -215 69z"/>
<path fill="green" d="M1120 5751 l0 -621 100 0 100 0 0 250 0 251 91 -3 91 -3 141 -247
142 -248 113 0 114 0 -20 33 c-76 127 -283 489 -280 491 1 2 24 13 50 25 65
31 151 126 174 193 25 73 25 206 0 278 -28 79 -110 159 -196 190 -61 22 -83
24 -342 28 l-278 4 0 -621z m544 419 c64 -32 88 -66 94 -132 6 -78 -11 -130
-58 -171 -52 -48 -101 -60 -250 -61 l-125 -1 -3 199 -2 198 147 -4 c134 -3
153 -6 197 -28z"/>
<path d="M2000 6366 c0 -3 81 -172 180 -376 l180 -371 0 -245 0 -244 105 0
105 0 0 244 0 244 180 371 c99 204 180 374 180 376 0 3 -46 5 -103 5 l-103 0
-107 -237 c-58 -131 -117 -262 -129 -292 l-24 -55 -23 62 c-12 35 -69 165
-126 290 l-103 227 -106 3 c-58 1 -106 1 -106 -2z"/>
<path d="M3030 5750 l0 -620 100 0 100 0 0 234 0 233 158 6 c169 5 240 20 325
70 56 33 113 97 141 156 29 64 31 251 2 326 -41 105 -148 182 -286 204 -36 6
-172 11 -302 11 l-238 0 0 -620z m545 426 c79 -34 106 -80 106 -183 0 -166
-108 -231 -366 -221 l-80 3 -3 214 -2 213 152 -4 c114 -3 163 -9 193 -22z"/>
<path fill="Orange" d="M4131 5763 c-113 -334 -206 -614 -209 -621 -3 -10 18 -12 99 -10
l103 3 56 177 55 178 200 0 200 0 55 -180 55 -180 107 0 107 0 -208 618 -208
617 -104 3 -104 3 -204 -608z m402 52 c24 -77 43 -143 40 -147 -2 -5 -64 -8
-138 -8 -74 0 -136 3 -138 8 -2 4 20 84 49 177 30 94 61 205 71 248 l17 79 27
-109 c15 -59 47 -171 72 -248z"/>
<path d="M5060 5750 l0 -620 100 0 100 0 0 195 0 194 86 101 c47 55 88 100 92
100 4 0 84 -133 177 -295 l169 -295 114 0 114 0 -20 33 c-30 48 -397 678 -411
705 -11 21 2 40 179 257 104 129 190 236 190 239 0 4 -51 6 -113 6 l-113 0
-233 -295 c-129 -163 -238 -298 -243 -301 -7 -4 -8 15 -4 52 3 33 8 168 12
302 l6 242 -101 0 -101 0 0 -620z"/>
<path fill="#ffd" d="M6600 5750 l0 -620 100 0 100 0 0 265 0 265 230 0 230 0 0 85 0 85
-227 2 -228 3 0 180 0 180 268 3 267 2 0 85 0 85 -370 0 -370 0 0 -620z"/>
<path fill="#000000" d="M7531 5763 c-112 -335 -206 -614 -209 -620 -3 -10 21 -13 99 -13
l104 0 56 178 55 177 200 3 200 2 55 -177 55 -178 108 -3 c99 -2 107 -1 102
15 -4 10 -97 288 -209 618 l-202 600 -105 3 -105 2 -204 -607z m323 331 c8
-38 40 -148 70 -246 31 -97 56 -179 56 -182 0 -3 -63 -6 -140 -6 -122 0 -140
2 -140 16 0 9 25 96 55 193 31 97 61 204 67 238 6 35 13 62 14 60 2 -2 10 -34
18 -73z"/>
<path fill="#000000" d="M8470 5750 l0 -620 90 0 90 0 -2 440 c-2 241 0 436 4 432 3 -4 11
-25 17 -47 6 -22 65 -190 133 -373 l123 -333 59 3 60 3 98 265 c54 146 115
315 136 377 l37 112 -4 -439 -3 -440 96 0 96 0 0 620 0 620 -107 0 -108 0
-118 -333 c-65 -182 -130 -377 -144 -432 -14 -55 -29 -103 -33 -108 -3 -4 -18
37 -33 90 -15 54 -82 252 -149 441 l-121 342 -109 0 -108 0 0 -620z"/>
<path d="M9790 5750 l0 -620 100 0 100 0 0 620 0 620 -100 0 -100 0 0 -620z"/>
<path fill="Yellow" d="M10260 5750 l0 -620 360 0 361 0 -3 83 -3 82 -257 3 -258 2 0 535 0
535 -100 0 -100 0 0 -620z"/>
<path fill="Red" d="M11146 5990 l184 -380 0 -240 0 -240 100 0 100 0 0 239 0 240 101
208 c56 114 139 286 185 381 l83 172 -104 0 -103 0 -32 -67 c-74 -158 -220
-491 -220 -502 0 -6 -4 -11 -10 -11 -5 0 -10 7 -10 14 0 17 -65 172 -171 404
l-73 162 -107 0 -107 0 184 -380z"/>
</g>
</svg>
 
