<?xml version="1.0" standalone="no"?>
<!DOCTYPE svg PUBLIC "-//W3C//DTD SVG 20010904//EN"
 "http://www.w3.org/TR/2001/REC-SVG-20010904/DTD/svg10.dtd">
<svg version="1.0" xmlns="http://www.w3.org/2000/svg"
 width="1920.000000pt" height="3414.000000pt" viewBox="0 0 1920.000000 3414.000000"
 preserveAspectRatio="xMidYMid meet">
<metadata>
Created by potrace 1.16, written by Peter Selinger 2001-2019
</metadata>
<g transform="translate(0.000000,3414.000000) scale(0.100000,-0.100000)"
fill="#fff" stroke="none">
<path d="M0 17070 l0 -9660 9600 0 9600 0 0 9660 0 9660 -9600 0 -9600 0 0
-9660z m9246 8970 c47 -90 54 -110 65 -182 6 -40 20 -91 31 -112 11 -22 28
-79 39 -127 10 -48 28 -103 38 -121 11 -18 27 -71 36 -118 9 -47 28 -110 42
-140 14 -30 31 -89 38 -130 7 -42 23 -94 34 -116 11 -22 27 -78 36 -126 8 -48
24 -102 35 -120 11 -19 29 -77 39 -129 11 -51 29 -112 41 -135 11 -22 27 -75
35 -117 8 -43 24 -96 36 -119 12 -23 28 -78 35 -121 8 -44 26 -104 39 -132 14
-29 31 -83 37 -121 5 -38 21 -90 34 -117 14 -26 31 -82 40 -125 8 -42 26 -99
39 -127 14 -27 31 -86 39 -130 7 -44 23 -96 35 -115 11 -20 25 -69 31 -110 6
-41 21 -97 35 -126 13 -28 33 -91 44 -140 10 -50 28 -105 39 -124 12 -19 26
-66 32 -105 7 -38 23 -94 37 -123 13 -29 31 -91 39 -137 8 -46 25 -107 39
-137 13 -29 29 -84 36 -123 6 -38 23 -92 36 -119 14 -28 31 -85 39 -128 7 -43
24 -99 38 -125 13 -27 29 -82 36 -123 7 -41 21 -89 32 -107 10 -18 28 -74 38
-125 10 -52 33 -123 49 -158 17 -36 34 -82 37 -103 8 -43 24 -60 24 -24 0 28
49 66 115 90 115 43 199 77 209 87 5 5 17 10 27 10 9 0 37 11 63 25 26 14 55
25 65 25 9 0 26 7 37 15 10 8 36 20 58 26 21 6 63 21 92 35 29 13 58 24 64 24
6 0 32 11 58 25 26 14 52 25 58 25 6 0 22 8 35 19 13 10 38 21 54 24 17 3 65
19 107 37 50 21 86 30 101 26 47 -11 231 -151 436 -330 57 -50 123 -107 146
-126 74 -62 539 -462 562 -484 11 -12 40 -37 63 -56 24 -19 52 -44 64 -56 12
-11 69 -62 129 -112 124 -106 142 -111 181 -52 14 22 26 45 26 52 0 19 -52
143 -92 218 -106 202 -252 373 -507 594 -346 300 -454 392 -504 429 -60 44
-107 87 -107 98 0 4 13 10 29 14 16 3 35 12 41 20 6 7 27 16 47 20 20 4 48 15
61 26 41 31 58 24 85 -34 28 -61 71 -97 125 -104 33 -4 42 0 79 34 50 46 74
105 82 198 6 67 7 69 36 76 33 8 139 49 200 78 22 11 51 23 65 27 14 3 37 15
52 25 14 11 37 19 51 19 13 0 35 8 48 18 13 11 37 22 54 26 16 4 52 18 81 32
28 13 57 24 65 24 8 0 32 11 54 25 22 13 50 25 63 25 12 0 31 9 42 20 11 11
30 20 43 20 12 0 38 8 57 19 19 10 61 26 92 35 31 9 60 21 63 26 3 5 25 15 48
21 23 6 52 19 65 30 14 10 35 19 47 19 12 0 34 9 47 20 14 10 43 24 64 29 48
12 156 54 206 81 20 11 42 20 49 20 6 0 30 9 53 19 58 27 222 91 234 91 5 0
15 6 21 14 7 8 28 17 48 21 20 4 48 15 61 26 14 10 35 19 47 19 12 0 33 8 46
18 13 10 44 24 69 31 25 7 63 21 85 31 22 10 51 22 65 25 14 4 32 13 40 20 8
7 34 18 57 24 23 6 48 17 55 24 15 15 125 43 134 35 10 -11 -28 -109 -46 -118
-32 -17 -49 -40 -60 -81 -8 -27 -21 -46 -44 -61 -24 -16 -38 -36 -48 -67 -7
-24 -22 -49 -33 -55 -31 -18 -53 -49 -60 -84 -4 -24 -16 -39 -41 -54 -26 -15
-37 -30 -45 -64 -8 -31 -21 -51 -43 -66 -39 -28 -44 -34 -56 -80 -6 -21 -15
-38 -20 -38 -21 0 -59 -48 -69 -88 -9 -30 -20 -46 -41 -57 -33 -17 -50 -43
-50 -74 0 -12 -12 -31 -26 -44 -48 -40 -62 -58 -68 -88 -4 -19 -17 -36 -36
-47 -22 -12 -36 -33 -51 -73 -14 -39 -29 -60 -45 -68 -16 -7 -34 -31 -48 -64
-13 -28 -37 -62 -54 -74 -18 -13 -33 -35 -37 -55 -4 -20 -24 -49 -51 -74 -30
-28 -44 -49 -44 -67 0 -28 -19 -52 -50 -62 -12 -4 -26 -25 -37 -57 -13 -37
-27 -57 -51 -71 -24 -14 -35 -30 -43 -62 -8 -31 -22 -52 -50 -74 -26 -22 -40
-42 -45 -67 -5 -27 -15 -41 -40 -56 -25 -14 -37 -31 -45 -61 -10 -36 -59 -97
-79 -97 -4 0 -13 -20 -19 -45 -8 -33 -19 -48 -40 -59 -26 -14 -40 -37 -56 -93
-3 -12 -21 -31 -40 -42 -27 -16 -37 -30 -46 -66 -10 -38 -18 -50 -46 -63 -24
-12 -36 -26 -45 -54 -6 -21 -8 -41 -4 -46 11 -11 581 -17 1835 -20 856 -2
1120 -5 1140 -15 16 -7 27 -22 29 -38 2 -20 -10 -36 -69 -84 -39 -33 -87 -75
-106 -92 -18 -18 -38 -33 -43 -33 -5 0 -25 -15 -44 -32 -19 -18 -60 -53 -91
-78 -31 -25 -76 -62 -100 -82 -25 -20 -53 -39 -64 -43 -11 -3 -23 -14 -26 -24
-3 -9 -21 -25 -40 -34 -19 -9 -42 -28 -51 -42 -9 -14 -22 -25 -28 -25 -7 0
-23 -12 -37 -26 -13 -14 -50 -44 -81 -65 -32 -22 -58 -44 -58 -48 0 -5 -15
-16 -34 -25 -18 -9 -41 -27 -50 -40 -8 -14 -25 -28 -38 -32 -12 -3 -36 -21
-54 -38 -17 -17 -57 -51 -89 -76 -31 -25 -77 -62 -101 -82 -25 -21 -51 -38
-58 -38 -7 0 -18 -11 -25 -24 -7 -13 -25 -29 -40 -36 -14 -6 -37 -23 -51 -36
-41 -41 -133 -115 -161 -129 -15 -8 -29 -21 -32 -29 -3 -8 -21 -22 -39 -32
-18 -9 -43 -29 -56 -45 -13 -16 -28 -29 -34 -29 -6 0 -30 -17 -53 -37 -23 -21
-66 -56 -95 -78 -29 -22 -70 -57 -93 -77 -22 -21 -45 -38 -51 -38 -5 0 -24
-14 -40 -31 -29 -28 -58 -52 -186 -154 -28 -22 -67 -54 -86 -71 -19 -18 -48
-37 -64 -44 -16 -7 -32 -20 -35 -30 -3 -10 -21 -25 -39 -34 -19 -9 -36 -22
-39 -31 -4 -8 -25 -26 -49 -41 -50 -31 -105 -75 -153 -121 -19 -18 -38 -33
-44 -33 -6 0 -28 -17 -50 -37 -22 -21 -60 -54 -86 -73 -25 -19 -68 -54 -94
-77 -27 -24 -52 -43 -58 -43 -5 0 -24 -16 -43 -35 -19 -19 -38 -35 -43 -35 -9
0 -58 -40 -132 -109 -17 -15 -45 -36 -63 -46 -18 -11 -32 -23 -32 -27 0 -5
-25 -24 -55 -43 -30 -20 -55 -40 -55 -46 0 -5 -12 -15 -27 -21 -16 -7 -42 -26
-59 -43 -16 -16 -56 -50 -88 -75 -92 -71 -149 -117 -181 -145 -17 -15 -41 -32
-53 -39 -13 -7 -35 -24 -50 -39 -15 -16 -49 -46 -77 -68 -165 -131 -322 -291
-440 -448 -11 -14 -27 -32 -37 -39 -30 -22 -59 -99 -48 -128 5 -13 17 -54 25
-90 8 -36 24 -77 34 -91 11 -13 27 -56 36 -96 9 -40 27 -88 40 -107 14 -20 29
-60 35 -90 5 -30 23 -80 39 -110 16 -31 32 -76 36 -100 4 -25 20 -67 35 -95
15 -27 33 -74 39 -103 6 -30 22 -73 36 -96 13 -23 31 -73 40 -111 9 -38 24
-80 34 -94 20 -28 36 -75 45 -132 4 -19 17 -50 30 -68 14 -19 29 -60 36 -99 7
-37 21 -76 31 -87 10 -12 28 -58 39 -103 11 -45 31 -98 45 -117 13 -20 29 -62
35 -93 7 -31 23 -76 36 -99 14 -24 29 -69 35 -100 6 -32 21 -74 34 -93 13 -19
32 -66 41 -105 9 -38 28 -90 42 -113 14 -24 29 -65 34 -90 4 -25 22 -72 38
-104 17 -32 33 -79 36 -105 4 -27 17 -65 30 -86 13 -20 31 -67 40 -105 8 -37
23 -78 33 -92 21 -30 37 -73 47 -120 3 -19 22 -64 40 -99 19 -35 34 -76 34
-90 0 -15 13 -53 29 -86 16 -33 34 -87 41 -119 7 -33 23 -76 35 -95 13 -20 31
-65 39 -101 8 -36 27 -87 42 -114 15 -26 31 -69 36 -94 4 -26 22 -72 38 -103
16 -32 32 -77 36 -101 3 -23 18 -63 31 -87 14 -24 31 -69 39 -100 7 -31 27
-83 43 -115 17 -32 31 -70 31 -85 0 -15 16 -59 35 -99 19 -39 40 -94 45 -121
5 -28 21 -68 35 -89 14 -21 30 -65 36 -97 6 -33 21 -78 34 -100 13 -22 31 -69
40 -105 9 -35 27 -82 40 -105 13 -22 28 -65 34 -95 7 -30 23 -73 36 -97 14
-23 31 -71 39 -106 7 -36 23 -77 34 -92 11 -14 26 -52 32 -83 6 -31 25 -83 41
-114 16 -32 34 -81 40 -110 6 -29 22 -74 35 -100 29 -58 30 -92 4 -118 -19
-19 -22 -19 -50 -5 -16 8 -32 19 -35 25 -4 6 -21 16 -38 24 -34 14 -108 70
-162 124 -19 17 -39 32 -45 32 -6 0 -25 14 -43 30 -18 17 -46 41 -63 53 -83
58 -129 94 -152 120 -14 15 -31 27 -37 27 -7 0 -26 16 -44 35 -17 19 -37 35
-45 35 -7 0 -21 10 -32 21 -10 12 -45 39 -76 61 -32 21 -58 43 -58 47 0 5 -14
14 -31 21 -17 7 -38 24 -46 37 -9 13 -31 30 -49 38 -19 8 -34 19 -34 24 0 6
-19 23 -42 37 -43 27 -78 55 -162 127 -24 20 -48 37 -54 37 -6 0 -20 12 -32
28 -12 15 -34 34 -49 42 -16 8 -45 29 -65 45 -60 50 -133 108 -181 145 -25 19
-66 52 -91 73 -25 20 -48 37 -52 37 -4 0 -23 14 -41 31 -19 17 -51 42 -73 55
-21 13 -38 29 -38 34 0 5 -18 19 -40 30 -23 12 -43 27 -46 35 -3 8 -22 23 -41
35 -37 22 -90 63 -157 121 -22 20 -50 39 -62 43 -12 3 -26 18 -32 31 -6 14
-18 25 -26 25 -8 0 -35 17 -60 38 -24 20 -72 57 -106 82 -34 25 -74 57 -89 71
-14 14 -41 34 -59 43 -18 9 -36 24 -39 32 -3 8 -20 22 -37 31 -31 16 -94 65
-148 116 -17 15 -43 34 -59 43 -16 8 -36 25 -45 39 -9 13 -26 27 -37 31 -12 4
-44 26 -72 50 -27 24 -55 44 -62 44 -7 0 -17 9 -23 20 -6 11 -31 31 -55 46
-25 14 -45 32 -45 39 0 7 -12 17 -27 23 -16 5 -42 22 -60 38 -17 16 -62 52
-100 79 -37 28 -81 64 -98 81 -17 17 -41 35 -53 38 -12 4 -27 16 -32 27 -6 10
-28 28 -50 39 -21 11 -43 26 -47 33 -4 7 -24 24 -43 37 -41 28 -98 73 -141
113 -17 15 -44 34 -59 42 -16 8 -35 23 -42 33 -7 11 -27 26 -44 35 -17 9 -42
28 -55 42 -13 14 -40 35 -60 45 -20 11 -39 26 -42 34 -3 8 -21 22 -38 32 -18
9 -40 25 -48 35 -16 19 -48 43 -136 103 -27 18 -59 44 -70 56 -11 12 -34 27
-51 35 -17 7 -42 24 -56 38 -14 14 -42 29 -62 33 -20 3 -49 18 -64 33 -15 15
-48 33 -74 40 -26 7 -54 22 -64 32 -9 10 -45 28 -79 39 -34 11 -71 30 -80 40
-17 19 -76 37 -104 31 -8 -1 -28 -13 -45 -26 -17 -13 -53 -31 -81 -40 -27 -9
-60 -26 -71 -37 -12 -10 -43 -26 -68 -33 -26 -8 -64 -28 -84 -45 -20 -16 -47
-30 -59 -30 -13 0 -40 -15 -60 -34 -21 -18 -55 -39 -77 -47 -21 -8 -47 -26
-58 -41 -11 -16 -25 -28 -32 -28 -6 0 -28 -15 -48 -32 -72 -64 -153 -125 -175
-132 -12 -4 -25 -15 -28 -25 -3 -11 -19 -24 -36 -31 -16 -7 -40 -26 -54 -41
-13 -16 -29 -29 -35 -29 -7 0 -24 -12 -38 -28 -15 -15 -47 -41 -72 -57 -25
-17 -53 -40 -63 -52 -10 -13 -25 -23 -34 -23 -8 0 -29 -16 -46 -35 -17 -19
-36 -35 -42 -35 -7 0 -28 -15 -48 -32 -74 -68 -136 -118 -145 -118 -6 0 -29
-18 -52 -40 -23 -22 -48 -40 -55 -40 -8 0 -19 -9 -25 -20 -6 -12 -33 -35 -61
-51 -27 -17 -49 -34 -49 -39 0 -5 -17 -18 -37 -31 -21 -12 -51 -34 -68 -49
-16 -15 -40 -31 -52 -34 -12 -4 -25 -16 -28 -26 -3 -11 -24 -29 -45 -42 -21
-13 -73 -51 -115 -86 -42 -34 -87 -68 -100 -74 -14 -6 -31 -21 -40 -34 -8 -13
-30 -30 -50 -39 -19 -10 -37 -25 -40 -35 -3 -11 -16 -22 -28 -26 -12 -4 -41
-24 -64 -45 -24 -22 -46 -39 -51 -39 -5 0 -28 -18 -52 -40 -24 -22 -47 -40
-52 -40 -5 0 -32 -23 -59 -50 -57 -57 -61 -87 -9 -69 17 6 47 9 68 6 20 -3 87
-12 147 -19 61 -8 115 -17 121 -21 6 -3 95 -11 196 -17 102 -6 195 -13 207
-15 12 -2 90 -7 174 -10 84 -4 179 -11 212 -17 33 -5 122 -13 198 -17 156 -9
181 -19 133 -55 -16 -11 -69 -52 -118 -91 -48 -38 -130 -102 -181 -142 -50
-40 -121 -95 -156 -123 -35 -27 -68 -50 -73 -50 -4 0 -8 -6 -8 -14 0 -7 -13
-19 -30 -26 -16 -7 -30 -15 -30 -19 0 -4 -15 -15 -32 -26 -18 -10 -37 -24 -43
-30 -12 -14 -115 -97 -181 -145 -27 -19 -56 -42 -66 -50 -71 -61 -148 -120
-157 -120 -3 0 -27 -19 -53 -43 -26 -23 -70 -58 -97 -77 -28 -19 -50 -38 -51
-42 0 -4 -12 -14 -27 -22 -16 -8 -44 -29 -64 -48 -20 -18 -58 -49 -85 -67 -48
-34 -129 -96 -189 -145 -16 -14 -59 -47 -95 -75 -36 -28 -74 -60 -85 -71 -12
-11 -24 -20 -28 -20 -9 0 -74 -50 -121 -93 -17 -16 -60 -49 -96 -75 -36 -25
-68 -52 -73 -58 -10 -16 -74 -37 -110 -36 -41 1 -55 17 -34 39 9 10 21 40 27
66 6 27 17 58 24 70 8 12 17 41 21 64 4 23 13 47 20 53 8 6 19 37 26 68 7 31
20 66 31 78 10 11 18 31 18 45 0 13 9 41 20 62 11 21 23 58 27 82 3 24 11 46
18 49 7 2 18 28 25 58 7 29 20 67 30 83 10 17 21 44 25 62 3 17 15 48 26 69
10 21 19 50 19 65 0 14 9 37 19 51 11 13 23 42 26 64 4 21 15 53 25 69 10 17
21 46 25 65 4 19 16 49 26 66 10 17 19 42 19 55 0 13 11 45 25 71 14 26 25 57
25 68 0 12 9 34 19 49 11 15 23 40 27 57 8 37 43 95 66 112 31 22 21 35 -22
29 -23 -3 -55 -17 -75 -34 -19 -15 -54 -43 -77 -61 -24 -18 -70 -55 -103 -82
-33 -28 -65 -50 -72 -50 -6 0 -21 -13 -33 -30 -12 -16 -32 -33 -46 -36 -13 -3
-33 -19 -45 -35 -11 -16 -27 -29 -35 -29 -8 0 -31 -16 -51 -36 -21 -20 -54
-46 -73 -59 -19 -12 -44 -32 -54 -44 -11 -11 -24 -21 -29 -21 -5 0 -29 -17
-53 -37 -24 -21 -64 -54 -89 -73 -25 -19 -68 -54 -96 -78 -27 -23 -54 -42 -59
-42 -5 0 -25 -16 -44 -35 -20 -19 -40 -35 -45 -35 -5 0 -25 -15 -44 -32 -52
-48 -105 -90 -159 -127 -27 -17 -48 -35 -48 -40 0 -4 -16 -15 -35 -24 -20 -9
-38 -24 -42 -32 -3 -9 -19 -23 -37 -32 -17 -9 -43 -28 -57 -42 -14 -14 -45
-39 -69 -56 -23 -16 -56 -40 -73 -52 -18 -13 -45 -36 -62 -53 -16 -16 -35 -30
-42 -30 -7 0 -22 -13 -35 -30 -12 -16 -27 -30 -33 -30 -6 0 -35 -20 -63 -44
-29 -25 -60 -47 -70 -50 -10 -4 -28 -20 -40 -36 -13 -17 -29 -30 -37 -30 -8 0
-29 -14 -47 -31 -98 -91 -176 -122 -208 -84 -11 13 -10 22 3 51 10 19 17 46
17 59 0 32 28 116 46 135 7 9 20 47 29 85 9 39 25 82 35 97 11 14 27 57 36 95
9 37 28 87 41 110 14 24 31 71 39 105 8 35 26 82 39 105 14 22 30 65 36 95 6
29 21 71 34 93 12 22 28 67 35 100 7 33 24 78 38 100 14 22 32 69 39 105 8 36
25 82 39 103 13 20 31 67 38 103 8 37 23 79 34 93 11 15 25 54 32 87 7 32 25
82 40 109 14 28 32 77 39 110 8 32 24 76 37 97 13 21 29 62 35 90 6 29 24 78
40 108 15 30 33 80 40 110 6 30 19 70 30 88 10 18 27 66 38 107 10 40 28 87
39 103 12 16 28 61 37 100 9 39 25 82 36 96 10 13 26 53 35 88 9 34 27 82 40
105 13 23 31 72 40 109 8 37 24 80 34 94 10 14 26 57 35 95 9 38 26 88 39 110
13 22 31 71 40 108 9 38 27 85 41 105 13 20 28 64 34 97 6 32 22 75 34 95 13
19 29 62 35 94 7 33 23 78 37 102 14 23 31 69 39 102 7 33 25 79 39 103 14 24
31 71 37 103 7 33 23 76 36 96 13 20 29 63 35 95 6 33 21 77 34 97 14 20 32
68 40 107 9 39 25 81 36 95 11 13 28 58 38 100 10 41 28 88 40 105 12 16 26
56 32 88 6 32 23 81 38 108 16 28 34 77 41 109 7 33 23 76 36 95 12 20 30 67
39 105 8 37 25 81 36 98 12 16 27 59 35 95 7 37 25 83 38 102 13 20 29 61 35
91 6 30 25 83 42 117 37 72 35 91 -16 150 -19 23 -35 46 -35 51 0 6 -13 20
-29 31 -15 11 -34 34 -41 50 -7 17 -21 33 -32 37 -10 3 -26 21 -35 39 -9 18
-26 39 -38 45 -13 7 -28 23 -33 36 -6 12 -24 30 -40 38 -16 8 -32 24 -35 35
-3 12 -16 25 -30 30 -14 6 -36 24 -48 40 -13 17 -29 31 -36 31 -8 0 -31 17
-52 38 -21 20 -69 60 -106 87 -37 28 -79 62 -93 78 -14 15 -31 27 -38 27 -7 0
-23 13 -37 29 -13 16 -38 36 -55 45 -18 9 -32 20 -32 25 0 5 -17 19 -37 31
-38 22 -86 61 -165 133 -23 20 -46 37 -53 37 -6 0 -25 15 -42 33 -17 17 -52
48 -78 67 -25 19 -70 55 -100 80 -30 25 -75 61 -101 80 -25 19 -62 50 -81 68
-19 17 -39 32 -43 32 -5 0 -29 17 -54 38 -24 20 -70 57 -101 82 -31 25 -72 59
-92 77 -19 18 -44 35 -53 38 -10 3 -25 16 -34 30 -8 13 -34 34 -56 46 -22 12
-40 26 -40 31 0 4 -22 22 -49 38 -27 17 -56 42 -65 55 -9 14 -23 25 -30 25 -8
0 -25 13 -39 29 -13 16 -38 36 -55 45 -17 9 -36 25 -42 35 -5 11 -20 23 -32
27 -13 3 -41 23 -64 43 -86 76 -143 121 -153 121 -6 0 -20 13 -33 30 -12 16
-29 32 -39 35 -9 3 -33 20 -52 38 -20 18 -61 52 -92 77 -102 81 -160 129 -185
154 -14 13 -40 31 -57 40 -18 9 -33 21 -33 26 0 5 -17 21 -37 35 -53 35 -122
88 -163 125 -19 17 -57 49 -85 70 -27 21 -63 50 -80 64 -16 14 -47 38 -67 53
-109 83 -148 114 -148 122 0 4 -12 13 -27 20 -14 7 -38 23 -52 37 -51 48 -118
104 -127 104 -5 0 -31 20 -59 45 -27 25 -53 45 -57 45 -4 0 -22 16 -39 35 -18
19 -37 35 -44 35 -6 0 -25 16 -42 35 -17 19 -38 35 -47 35 -8 0 -21 9 -29 20
-8 11 -37 37 -65 58 -118 87 -152 114 -152 123 0 5 -16 17 -35 26 -19 9 -37
25 -41 35 -3 10 -18 25 -34 33 -57 29 -63 84 -12 103 18 7 554 12 1578 16 922
3 1560 9 1575 14 28 11 52 34 419 392 426 416 458 446 580 547 181 148 468
362 496 369 14 4 37 1 50 -5 14 -6 33 -11 43 -11 10 0 29 -8 42 -19 13 -10 40
-22 59 -26 19 -4 42 -13 50 -20 8 -7 33 -18 55 -25 22 -7 61 -23 87 -36 26
-13 53 -24 60 -24 7 0 30 -9 51 -20 20 -11 42 -20 48 -20 7 0 35 -11 63 -24
87 -40 139 -63 191 -82 28 -10 59 -24 70 -31 11 -7 31 -13 46 -13 14 0 37 -8
50 -19 13 -10 38 -22 56 -25 18 -4 42 -15 55 -24 54 -40 75 -46 115 -31 36 14
37 16 54 99 9 47 26 103 37 125 12 22 28 74 36 115 8 42 25 100 39 130 14 30
32 92 41 138 8 46 24 98 35 116 12 18 25 64 31 102 5 39 21 95 35 126 14 31
32 89 40 130 7 40 25 98 39 129 14 31 29 78 32 105 7 58 32 140 51 170 7 12
20 58 28 103 8 46 24 98 35 116 11 18 27 69 35 112 7 43 25 104 40 135 14 31
30 85 36 120 6 35 21 88 35 118 14 30 32 91 40 135 8 44 25 98 36 120 12 22
27 73 34 113 7 41 25 98 38 129 14 30 31 85 37 121 6 37 24 96 39 132 15 36
32 93 38 127 6 34 24 93 40 130 16 37 33 93 36 124 4 30 18 80 32 110 14 30
32 88 39 131 8 42 25 99 39 126 14 27 30 79 36 115 11 68 34 142 50 163 6 6
18 52 26 100 9 50 26 108 40 133 13 24 27 69 30 100 4 31 20 87 36 125 16 37
34 98 40 135 6 36 23 93 38 126 15 33 31 82 35 110 8 55 28 101 47 108 19 6
47 -22 74 -73z m-6194 -2950 c18 -11 41 -20 51 -20 10 0 39 -11 65 -24 27 -13
65 -27 85 -31 20 -4 41 -13 47 -20 6 -8 26 -17 43 -21 18 -3 48 -15 67 -25 54
-28 161 -75 203 -89 22 -7 51 -18 65 -26 15 -8 37 -14 48 -14 12 0 27 -7 34
-15 7 -8 31 -20 54 -26 22 -6 48 -17 56 -24 8 -7 26 -16 40 -20 40 -11 182
-66 220 -85 19 -10 49 -21 67 -25 17 -3 37 -12 43 -20 6 -8 26 -17 43 -20 18
-4 46 -15 63 -25 17 -9 55 -25 85 -35 30 -10 63 -24 74 -31 11 -8 29 -14 41
-14 12 0 32 -8 45 -19 13 -10 40 -21 60 -25 21 -4 42 -13 49 -21 6 -7 26 -17
43 -20 18 -4 55 -18 83 -30 28 -13 69 -29 92 -36 23 -7 47 -18 53 -26 6 -7 20
-13 32 -13 11 0 34 -8 51 -19 17 -10 42 -22 56 -26 14 -4 49 -18 77 -31 29
-13 65 -26 80 -30 16 -4 35 -13 43 -20 8 -7 35 -17 58 -23 24 -5 51 -16 60
-24 9 -8 28 -18 42 -22 14 -3 43 -15 65 -26 77 -36 170 -71 204 -76 18 -3 42
-14 52 -24 11 -11 26 -19 36 -19 9 0 39 -11 67 -24 28 -13 82 -38 120 -55 68
-32 68 -32 50 -53 -11 -11 -86 -74 -167 -140 -82 -66 -183 -153 -226 -192 -42
-39 -128 -118 -191 -176 -172 -157 -349 -332 -423 -418 -36 -43 -74 -86 -84
-97 -10 -11 -52 -65 -92 -120 -41 -55 -79 -103 -85 -107 -22 -15 -40 -2 -49
35 -6 25 -21 47 -47 67 -23 18 -41 43 -45 60 -4 17 -19 45 -33 62 -15 17 -34
54 -44 82 -18 52 -24 59 -76 87 -19 11 -32 28 -37 48 -4 18 -20 42 -39 56 -20
15 -38 41 -45 65 -7 24 -25 49 -46 66 -22 17 -39 42 -50 74 -12 36 -23 51 -45
60 -22 9 -33 23 -41 52 -9 37 -50 88 -70 88 -4 0 -15 22 -24 49 -11 33 -28 58
-50 75 -22 17 -39 42 -47 67 -8 30 -22 48 -50 65 -25 16 -38 32 -38 47 0 34
-22 69 -55 87 -18 10 -32 27 -35 46 -9 43 -27 72 -50 79 -20 6 -50 53 -50 78
0 16 -37 51 -62 60 -10 4 -18 15 -18 25 0 28 -28 92 -41 92 -19 0 -59 49 -59
74 0 16 -13 34 -40 56 -27 21 -43 44 -50 71 -8 27 -21 46 -45 62 -19 12 -35
28 -35 34 0 27 -44 102 -66 111 -12 6 -27 27 -34 49 -14 43 -37 73 -56 73 -15
0 -37 39 -48 83 -4 17 -19 35 -36 45 -21 12 -35 32 -46 66 -12 35 -25 53 -49
67 -31 19 -50 53 -39 71 7 11 9 11 46 -12z m8311 -10965 c8 -7 18 -31 22 -51
3 -20 15 -53 26 -73 10 -20 19 -44 19 -54 0 -11 9 -36 19 -56 11 -20 26 -56
34 -81 30 -90 50 -146 67 -185 10 -22 20 -56 24 -75 3 -19 15 -43 25 -55 10
-11 21 -39 24 -63 3 -24 13 -52 22 -62 9 -9 18 -35 22 -56 3 -22 14 -52 23
-69 10 -16 21 -49 25 -72 3 -23 13 -47 21 -53 7 -7 16 -28 20 -49 3 -20 14
-50 25 -68 10 -18 21 -49 25 -70 3 -21 15 -51 24 -68 10 -16 22 -48 26 -70 4
-22 15 -50 24 -62 10 -13 21 -43 24 -67 4 -24 16 -54 26 -67 11 -12 20 -35 20
-50 0 -15 11 -49 25 -75 14 -26 25 -56 25 -68 0 -12 9 -35 19 -52 10 -17 22
-49 26 -72 4 -23 15 -52 26 -66 10 -13 19 -33 19 -45 0 -19 -3 -19 -42 10 -24
16 -54 37 -68 46 -14 10 -34 26 -46 38 -12 11 -32 28 -45 38 -13 10 -54 41
-91 70 -37 29 -98 75 -135 104 -38 29 -111 87 -163 128 -125 100 -198 155
-205 155 -3 0 -23 16 -43 36 -20 20 -53 47 -72 59 -19 12 -41 30 -49 39 -7 9
-17 16 -22 16 -5 0 -17 8 -27 18 -11 9 -33 28 -51 42 -17 14 -48 40 -69 57
-20 18 -40 33 -44 33 -5 0 -17 8 -27 18 -11 9 -32 26 -46 37 -15 11 -40 31
-55 45 -16 14 -50 41 -77 60 -26 19 -52 41 -56 47 -4 7 -13 13 -19 13 -5 0
-36 23 -68 50 -32 28 -61 50 -65 50 -4 0 -19 11 -34 25 -59 57 -68 65 -76 65
-4 0 -21 11 -39 25 -236 191 -285 229 -335 260 -9 6 -34 27 -56 47 -22 20 -74
61 -115 92 -77 56 -125 95 -163 131 l-22 20 120 7 c66 4 174 12 240 17 66 6
194 13 285 16 91 3 190 10 220 15 30 5 148 12 262 15 114 4 231 11 260 15 29
4 108 8 175 9 94 1 125 -2 136 -14z"/>
<path fill="#000000" d="M13195 21606 c-71 -31 -125 -134 -125 -238 0 -85 63 -198 132 -234
37 -19 123 -18 157 2 15 9 40 36 54 61 70 115 -4 359 -124 407 -47 19 -55 19
-94 2z"/>
<path fill="#000000" d="M13686 21065 c-19 -20 -46 -108 -46 -152 0 -39 20 -92 44 -116 11
-10 33 -17 56 -17 49 0 80 31 105 104 23 68 15 114 -29 161 -28 29 -40 35 -74
35 -23 0 -47 -7 -56 -15z"/>
<path fill="#000000" d="M7548 20894 c-5 -4 -8 -19 -8 -33 -1 -34 -25 -64 -75 -90 -22 -12
-67 -39 -100 -61 -33 -22 -73 -47 -88 -55 -50 -28 -267 -197 -292 -227 -51
-60 -25 -74 125 -65 84 4 108 10 181 42 46 21 92 38 102 37 9 0 17 6 17 14 0
8 15 24 34 35 30 17 37 29 56 101 12 44 30 96 41 115 16 28 19 50 17 115 -2
44 -6 76 -10 72z"/>
<path fill="#000000" d="M10878 20724 c-9 -82 51 -311 90 -341 19 -16 168 -18 177 -3 3 6 4
18 1 28 -6 17 -141 132 -209 178 -29 19 -32 26 -34 84 -3 68 -19 103 -25 54z"/>
<path fill="#000000" d="M7957 19534 c-4 -4 -7 -159 -7 -345 l0 -339 23 -5 c12 -3 78 -6 147
-8 l125 -2 3 -1152 2 -1152 -147 -3 -148 -3 0 -350 0 -350 850 0 850 0 0 350
0 350 -158 3 -157 3 2 407 3 407 95 -2 c247 -6 363 -78 406 -249 8 -34 19
-151 24 -279 5 -121 16 -258 24 -305 83 -489 423 -742 996 -743 178 -1 244 10
362 58 181 73 315 229 377 438 39 132 46 189 46 412 l0 220 -175 0 -175 0 -5
-125 c-5 -129 -14 -160 -54 -192 -29 -24 -87 -23 -120 3 -38 30 -63 129 -71
277 -8 162 -26 254 -70 348 -61 132 -159 245 -290 332 -76 52 -205 110 -261
119 -46 8 -43 20 9 33 241 61 437 183 552 345 96 134 126 239 126 435 -1 229
-39 405 -123 563 -42 78 -171 214 -256 271 -145 96 -360 166 -637 208 -134 20
-182 21 -1150 25 -556 2 -1014 1 -1018 -3z m1801 -699 c118 -28 205 -85 260
-173 49 -77 66 -151 67 -288 l0 -121 -39 -77 c-45 -88 -91 -133 -181 -175
-102 -48 -137 -54 -335 -55 l-185 -1 -3 440 c-1 242 0 446 3 453 7 18 330 16
413 -3z"/>
    <path
       fill="#000000"
       d="M5433 21975 c-43 -30 -84 -160 -75 -238 3 -25 16 -50 38 -74 33 -35
35 -35 95 -31 57 4 65 8 100 45 36 39 69 119 69 166 0 89 -60 147 -153 147
-31 0 -61 -6 -74 -15z"/>
<path fill="#000000" d="M4918 21423 c-32 -37 -41 -69 -42 -151 -1 -82 -1 -84 32 -113 35 -32
57 -35 97 -17 56 25 88 159 56 236 -23 54 -111 82 -143 45z"/>
</g>
</svg>
