<?xml version="1.0" standalone="no"?>
<!DOCTYPE svg PUBLIC "-//W3C//DTD SVG 20010904//EN"
 "http://www.w3.org/TR/2001/REC-SVG-20010904/DTD/svg10.dtd">
<svg version="1.0" xmlns="http://www.w3.org/2000/svg"
 width="981.000000pt" height="956.000000pt" viewBox="0 0 981.000000 956.000000"
 preserveAspectRatio="xMidYMid meet">

<g transform="translate(0.000000,956.000000) scale(0.100000,-0.100000)"
fill="#000000" stroke="none">
<path d="M2945 9546 c-59 -15 -128 -49 -169 -83 -65 -54 -2668 -2961 -2701
-3016 -86 -144 -86 -279 0 -425 40 -68 2630 -2956 2708 -3020 79 -64 143 -86
257 -86 89 -1 99 1 170 35 92 45 160 111 203 199 30 61 32 71 32 175 0 100 -3
116 -29 173 -25 53 -173 222 -993 1135 l-963 1072 2697 3 c2978 3 2795 7 3050
-59 223 -57 458 -162 643 -287 519 -351 844 -897 910 -1527 18 -170 8 -921
-14 -1045 -121 -688 -536 -1243 -1151 -1540 -228 -111 -452 -174 -704 -200
-69 -7 -1141 -10 -3267 -10 l-3164 0 0 -520 0 -520 3248 3 c3510 3 3276 0
3561 52 808 148 1548 636 2010 1325 303 452 477 953 521 1502 18 212 8 995
-14 1148 -84 588 -301 1101 -657 1551 -107 136 -376 402 -511 507 -483 374
-1027 593 -1627 652 -67 6 -1041 10 -2818 10 -1773 0 -2714 3 -2711 10 2 5
392 442 868 971 1121 1246 1055 1172 1084 1233 114 241 -29 529 -292 585 -66
14 -112 13 -177 -3z"/>
</g>
</svg>
