<?xml version="1.0" standalone="no"?>
<!DOCTYPE svg PUBLIC "-//W3C//DTD SVG 20010904//EN"
 "http://www.w3.org/TR/2001/REC-SVG-20010904/DTD/svg10.dtd">
<svg version="1.0" xmlns="http://www.w3.org/2000/svg"
 width="981.000000pt" height="956.000000pt" viewBox="0 0 981.000000 956.000000"
 preserveAspectRatio="xMidYMid meet">

<g transform="translate(0.000000,956.000000) scale(0.100000,-0.100000)"
fill="#000000" stroke="none">
<path d="M6675 9546 c-257 -64 -391 -345 -279 -582 29 -61 -36 13 1084 -1233
476 -529 866 -966 868 -971 2 -6 -1057 -11 -2780 -13 -2781 -3 -2783 -3 -2908
-24 -353 -60 -610 -141 -905 -283 -870 -421 -1504 -1242 -1694 -2190 -47 -238
-53 -316 -58 -779 -5 -470 2 -633 38 -855 197 -1211 1097 -2201 2284 -2511
142 -37 240 -57 416 -82 104 -16 388 -17 3362 -20 l3247 -3 0 520 0 520 -3163
0 c-2188 0 -3197 3 -3273 11 -479 47 -923 258 -1264 599 -308 308 -498 674
-582 1115 -18 97 -21 159 -25 535 -6 559 8 701 103 989 97 296 256 559 474
785 277 287 603 478 984 576 249 64 69 60 3043 58 l2702 -3 -476 -530 c-262
-291 -694 -773 -961 -1070 -567 -631 -547 -603 -547 -780 0 -105 2 -114 33
-178 117 -237 420 -310 624 -149 71 55 2673 2956 2713 3024 86 146 86 280 0
424 -31 52 -2399 2701 -2635 2947 -92 96 -155 136 -248 156 -66 14 -112 13
-177 -3z"/>
</g>
</svg>
